<svg xmlns="http://www.w3.org/2000/svg" width="64" height="64" shape-rendering="geometricPrecision" text-rendering="geometricPrecision" image-rendering="optimizeQuality" fill-rule="evenodd" clip-rule="evenodd" viewBox="0 0 640 640"><path fill-rule="nonzero" d="M320-.012h.012v.106c75.095 0 143.02 30.379 192.132 79.49 49.11 49.11 79.489 117.037 79.489 192.132h.106v.023c0 130.242-103.667 223.585-197.908 308.45-20.197 18.177-39.945 35.964-56.953 52.512-10.099 9.827-26.174 9.709-36.13-.166l-.083-.082-.048.047h-.011c-.402-.402-.78-.815-1.146-1.228-16.69-16.394-35.752-33.792-55.24-51.58C150.981 494.605 48.26 400.86 48.26 271.74v-.012h.106c0-75.107 30.379-143.033 79.49-192.144C176.966 30.473 244.893.094 319.988.094v-.106H320zm.012 51.627v.094h-.024v-.094c-60.686 0-115.69 24.661-155.565 64.536-39.874 39.874-64.548 94.89-64.548 155.577h.106v.012c0 106.43 93.828 192.05 178.986 269.767 13.595 12.402 26.977 24.626 40.052 36.992 13.193-12.319 26.623-24.413 40.264-36.697 86.068-77.493 180.735-162.746 180.735-270.062v-.024h.107c-.012-60.685-24.674-115.69-64.536-155.565-39.887-39.874-94.891-64.536-155.577-64.536z"/></svg>